G04 EAGLE Gerber RS-274X export*
G75*
%MOMM*%
%FSLAX34Y34*%
%LPD*%
%INTop Copper*%
%IPPOS*%
%AMOC8*
5,1,8,0,0,1.08239X$1,22.5*%
G01*
%ADD10C,1.676400*%
%ADD11C,1.524000*%
%ADD12P,1.649562X8X22.500000*%
%ADD13R,1.524000X1.524000*%
%ADD14P,1.429621X8X112.500000*%
%ADD15P,1.429621X8X202.500000*%
%ADD16P,1.429621X8X292.500000*%
%ADD17C,0.304800*%


D10*
X70000Y425800D03*
X70000Y324200D03*
D11*
X67030Y259220D02*
X67030Y243980D01*
X41630Y243980D02*
X41630Y259220D01*
D12*
X53290Y281440D03*
D13*
X82630Y505300D03*
D12*
X108030Y505300D03*
X133430Y505300D03*
X158830Y505300D03*
X184230Y505300D03*
X209630Y505300D03*
X82630Y530700D03*
X108030Y530700D03*
X133430Y530700D03*
X158830Y530700D03*
X184230Y530700D03*
X209630Y530700D03*
X235030Y505300D03*
X235030Y530700D03*
X260430Y505300D03*
X285830Y505300D03*
X311230Y505300D03*
X336630Y505300D03*
X362030Y505300D03*
X387430Y505300D03*
X260430Y530700D03*
X285830Y530700D03*
X311230Y530700D03*
X336630Y530700D03*
X362030Y530700D03*
X387430Y530700D03*
X412830Y505300D03*
X412830Y530700D03*
X438230Y505300D03*
X463630Y505300D03*
X489030Y505300D03*
X514430Y505300D03*
X539830Y505300D03*
X565230Y505300D03*
X438230Y530700D03*
X463630Y530700D03*
X489030Y530700D03*
X514430Y530700D03*
X539830Y530700D03*
X565230Y530700D03*
D14*
X98230Y324300D03*
X98230Y425900D03*
D15*
X65100Y466870D03*
X77800Y447820D03*
X90500Y466870D03*
D14*
X152460Y324200D03*
X152460Y425800D03*
D10*
X125000Y425800D03*
X125000Y324200D03*
D15*
X127300Y465000D03*
X140000Y445950D03*
X152700Y465000D03*
D11*
X98000Y258850D02*
X98000Y243610D01*
X123400Y243610D02*
X123400Y258850D01*
D12*
X111110Y281350D03*
D14*
X220000Y324200D03*
X220000Y425800D03*
D10*
X185000Y425800D03*
X185000Y324200D03*
D15*
X187300Y465000D03*
X200000Y445950D03*
X212700Y465000D03*
D11*
X152300Y257620D02*
X152300Y242380D01*
X177700Y242380D02*
X177700Y257620D01*
D12*
X165550Y280950D03*
D16*
X281270Y425800D03*
X281270Y324200D03*
D10*
X251890Y426120D03*
X251890Y324520D03*
D15*
X247300Y465000D03*
X260000Y445950D03*
X272700Y465000D03*
D11*
X207300Y257620D02*
X207300Y242380D01*
X232700Y242380D02*
X232700Y257620D01*
D12*
X220000Y281270D03*
D14*
X338650Y324200D03*
X338650Y425800D03*
D10*
X310000Y425800D03*
X310000Y324200D03*
D15*
X307300Y465000D03*
X320000Y445950D03*
X332700Y465000D03*
D11*
X262300Y257620D02*
X262300Y242380D01*
X287700Y242380D02*
X287700Y257620D01*
D12*
X275000Y281110D03*
D14*
X395000Y324200D03*
X395000Y425800D03*
D10*
X366190Y424530D03*
X366190Y322930D03*
D15*
X367300Y465000D03*
X380000Y445950D03*
X392700Y465000D03*
D11*
X317300Y257620D02*
X317300Y242380D01*
X342700Y242380D02*
X342700Y257620D01*
D12*
X330000Y281190D03*
D14*
X455000Y324200D03*
X455000Y425800D03*
D10*
X425000Y425800D03*
X425000Y324200D03*
D15*
X427300Y465000D03*
X440000Y445950D03*
X452700Y465000D03*
D11*
X372300Y257620D02*
X372300Y242380D01*
X397700Y242380D02*
X397700Y257620D01*
D12*
X385000Y281270D03*
D14*
X510000Y324200D03*
X510000Y425800D03*
D10*
X482460Y424530D03*
X482460Y322930D03*
D15*
X487300Y465000D03*
X500000Y445950D03*
X512700Y465000D03*
D11*
X427300Y257620D02*
X427300Y242380D01*
X452700Y242380D02*
X452700Y257620D01*
D12*
X440080Y280950D03*
D14*
X563900Y324550D03*
X563900Y426150D03*
D10*
X537460Y424530D03*
X537460Y322930D03*
D15*
X547300Y465000D03*
X560000Y445950D03*
X572700Y465000D03*
D11*
X482300Y257620D02*
X482300Y242380D01*
X507700Y242380D02*
X507700Y257620D01*
D12*
X494920Y281110D03*
D14*
X625000Y324200D03*
X625000Y425800D03*
D10*
X594920Y429530D03*
X594920Y327930D03*
D15*
X607300Y465000D03*
X620000Y445950D03*
X632700Y465000D03*
D11*
X537300Y257620D02*
X537300Y242380D01*
X562700Y242380D02*
X562700Y257620D01*
D12*
X549680Y281190D03*
D14*
X155000Y44200D03*
X155000Y145800D03*
D10*
X125000Y145800D03*
X125000Y44200D03*
D15*
X127300Y185000D03*
X140000Y165950D03*
X152700Y185000D03*
D11*
X592300Y242380D02*
X592300Y257620D01*
X617700Y257620D02*
X617700Y242380D01*
D12*
X605000Y281270D03*
D14*
X213730Y44200D03*
X213730Y145800D03*
D10*
X185000Y145800D03*
X185000Y44200D03*
D15*
X187300Y185000D03*
X200000Y165950D03*
X212700Y185000D03*
D11*
X607380Y22300D02*
X622620Y22300D01*
X622620Y47700D02*
X607380Y47700D01*
D12*
X585000Y35000D03*
D14*
X275000Y44200D03*
X275000Y145800D03*
D10*
X245000Y145800D03*
X245000Y44200D03*
D15*
X247300Y185000D03*
X260000Y165950D03*
X272700Y185000D03*
D11*
X607380Y77300D02*
X622620Y77300D01*
X622620Y102700D02*
X607380Y102700D01*
D12*
X585000Y90000D03*
D14*
X335000Y44200D03*
X335000Y145800D03*
D10*
X305000Y145800D03*
X305000Y44200D03*
D15*
X307300Y185000D03*
X320000Y165950D03*
X332700Y185000D03*
D11*
X607380Y132300D02*
X622620Y132300D01*
X622620Y157700D02*
X607380Y157700D01*
D12*
X585000Y145000D03*
D14*
X395000Y44200D03*
X395000Y145800D03*
D10*
X365000Y145800D03*
X365000Y44200D03*
D15*
X367300Y185000D03*
X380000Y165950D03*
X392700Y185000D03*
D11*
X607380Y187300D02*
X622620Y187300D01*
X622620Y212700D02*
X607380Y212700D01*
D12*
X585000Y200000D03*
D14*
X460000Y44200D03*
X460000Y145800D03*
D10*
X430000Y145800D03*
X430000Y44200D03*
D15*
X427300Y185000D03*
X440000Y165950D03*
X452700Y185000D03*
D11*
X487380Y87300D02*
X502620Y87300D01*
X502620Y112700D02*
X487380Y112700D01*
D12*
X525000Y100000D03*
D11*
X42700Y147300D02*
X27460Y147300D01*
X27460Y172700D02*
X42700Y172700D01*
X42700Y87300D02*
X27460Y87300D01*
X27460Y112700D02*
X42700Y112700D01*
X42620Y397300D02*
X27380Y397300D01*
X27380Y422700D02*
X42620Y422700D01*
D17*
X78232Y447040D02*
X97790Y427482D01*
X78232Y447040D02*
X77800Y447820D01*
X97790Y427482D02*
X98230Y425900D01*
X153670Y187198D02*
X173228Y187198D01*
X184404Y198374D01*
X201168Y198374D01*
X212344Y187198D01*
X153670Y187198D02*
X152700Y185000D01*
X212344Y187198D02*
X212700Y185000D01*
X262636Y187198D02*
X271018Y187198D01*
X262636Y187198D02*
X251460Y198374D01*
X226314Y198374D01*
X215138Y187198D01*
X271018Y187198D02*
X272700Y185000D01*
X215138Y187198D02*
X212700Y185000D01*
X89408Y466598D02*
X81026Y466598D01*
X36322Y421894D01*
X89408Y466598D02*
X90500Y466870D01*
X36322Y421894D02*
X35000Y422700D01*
X153670Y466598D02*
X153670Y474980D01*
X178816Y500126D02*
X181610Y502920D01*
X178816Y500126D02*
X162052Y483362D01*
X153670Y474980D01*
X153670Y466598D02*
X152700Y465000D01*
X181610Y502920D02*
X184230Y505300D01*
X178816Y500126D02*
X212344Y466598D01*
X212700Y465000D01*
X178816Y500126D02*
X184230Y505300D01*
X262636Y466598D02*
X271018Y466598D01*
X262636Y466598D02*
X251460Y477774D01*
X248666Y477774D02*
X226314Y477774D01*
X248666Y477774D02*
X251460Y477774D01*
X226314Y477774D02*
X215138Y466598D01*
X271018Y466598D02*
X272700Y465000D01*
X215138Y466598D02*
X212700Y465000D01*
X134112Y522478D02*
X134112Y528066D01*
X134112Y522478D02*
X145288Y511302D01*
X145288Y500126D01*
X162052Y483362D01*
X134112Y528066D02*
X133430Y530700D01*
X237490Y528066D02*
X237490Y519684D01*
X248666Y508508D01*
X248666Y477774D01*
X237490Y528066D02*
X235030Y530700D01*
X335280Y466598D02*
X349250Y466598D01*
X368808Y486156D02*
X385572Y502920D01*
X368808Y486156D02*
X349250Y466598D01*
X335280Y466598D02*
X332700Y465000D01*
X385572Y502920D02*
X387430Y505300D01*
X371602Y486156D02*
X391160Y466598D01*
X371602Y486156D02*
X368808Y486156D01*
X391160Y466598D02*
X392700Y465000D01*
X312928Y522478D02*
X312928Y528066D01*
X312928Y522478D02*
X324104Y511302D01*
X324104Y477774D02*
X324104Y474980D01*
X324104Y477774D02*
X324104Y511302D01*
X324104Y474980D02*
X332486Y466598D01*
X312928Y528066D02*
X311230Y530700D01*
X332486Y466598D02*
X332700Y465000D01*
X438658Y530860D02*
X447040Y530860D01*
X461010Y544830D01*
X474980Y544830D01*
X488950Y530860D01*
X438658Y530860D02*
X438230Y530700D01*
X488950Y530860D02*
X489030Y530700D01*
X472186Y466598D02*
X455422Y466598D01*
X472186Y466598D02*
X483362Y477774D01*
X500126Y477774D01*
X511302Y466598D01*
X455422Y466598D02*
X452700Y465000D01*
X511302Y466598D02*
X512700Y465000D01*
X569976Y477774D02*
X569976Y500126D01*
X569976Y477774D02*
X569976Y466598D01*
X569976Y500126D02*
X567182Y502920D01*
X569976Y466598D02*
X572700Y465000D01*
X567182Y502920D02*
X565230Y505300D01*
X623062Y466598D02*
X631444Y466598D01*
X623062Y466598D02*
X611886Y477774D01*
X569976Y477774D01*
X631444Y466598D02*
X632700Y465000D01*
X533654Y466598D02*
X514096Y466598D01*
X533654Y466598D02*
X544830Y477774D01*
X569976Y477774D01*
X514096Y466598D02*
X512700Y465000D01*
X435864Y519684D02*
X435864Y528066D01*
X435864Y519684D02*
X424688Y508508D01*
X424688Y497332D02*
X424688Y494538D01*
X424688Y497332D02*
X424688Y508508D01*
X424688Y494538D02*
X452628Y466598D01*
X435864Y528066D02*
X438230Y530700D01*
X452628Y466598D02*
X452700Y465000D01*
X424688Y497332D02*
X393954Y466598D01*
X392700Y465000D01*
X293370Y466598D02*
X273812Y466598D01*
X293370Y466598D02*
X304546Y477774D01*
X324104Y477774D01*
X273812Y466598D02*
X272700Y465000D01*
X97790Y324104D02*
X55880Y282194D01*
X97790Y324104D02*
X98230Y324300D01*
X55880Y282194D02*
X53290Y281440D01*
X472186Y86614D02*
X494538Y86614D01*
X472186Y86614D02*
X430276Y44704D01*
X494538Y86614D02*
X495000Y87300D01*
X430276Y44704D02*
X430000Y44200D01*
X321310Y41910D02*
X307340Y41910D01*
X321310Y41910D02*
X329692Y33528D01*
X354838Y33528D01*
X363220Y41910D01*
X307340Y41910D02*
X305000Y44200D01*
X363220Y41910D02*
X365000Y44200D01*
X81026Y86614D02*
X36322Y86614D01*
X81026Y86614D02*
X122936Y44704D01*
X36322Y86614D02*
X35080Y87300D01*
X122936Y44704D02*
X125000Y44200D01*
X170434Y41910D02*
X184404Y41910D01*
X170434Y41910D02*
X162052Y33528D01*
X134112Y33528D01*
X125730Y41910D01*
X184404Y41910D02*
X185000Y44200D01*
X125730Y41910D02*
X125000Y44200D01*
X407924Y41910D02*
X427482Y41910D01*
X407924Y41910D02*
X399542Y33528D01*
X374396Y33528D01*
X366014Y41910D01*
X427482Y41910D02*
X430000Y44200D01*
X366014Y41910D02*
X365000Y44200D01*
X122936Y326898D02*
X111760Y326898D01*
X103378Y335280D01*
X81026Y335280D01*
X72644Y326898D01*
X122936Y326898D02*
X125000Y324200D01*
X72644Y326898D02*
X70000Y324200D01*
X167640Y326898D02*
X184404Y326898D01*
X167640Y326898D02*
X159258Y335280D01*
X134112Y335280D01*
X125730Y326898D01*
X184404Y326898D02*
X185000Y324200D01*
X125730Y326898D02*
X125000Y324200D01*
X354838Y324104D02*
X366014Y324104D01*
X354838Y324104D02*
X343662Y335280D01*
X318516Y335280D01*
X310134Y326898D01*
X366014Y324104D02*
X366190Y322930D01*
X310134Y326898D02*
X310000Y324200D01*
X150876Y248666D02*
X145288Y248666D01*
X128524Y231902D01*
X117348Y231902D01*
X100584Y248666D01*
X150876Y248666D02*
X152300Y250000D01*
X100584Y248666D02*
X98000Y251230D01*
X97790Y251460D02*
X67056Y251460D01*
X67030Y251600D01*
X97790Y251460D02*
X98000Y251230D01*
X153670Y251460D02*
X173228Y271018D01*
X187198Y271018D01*
X206756Y251460D01*
X153670Y251460D02*
X152300Y250000D01*
X206756Y251460D02*
X207300Y250000D01*
X298958Y324104D02*
X307340Y324104D01*
X298958Y324104D02*
X287782Y312928D01*
X265430Y312928D01*
X254254Y324104D01*
X307340Y324104D02*
X310000Y324200D01*
X254254Y324104D02*
X251890Y324520D01*
X595122Y41910D02*
X614680Y22352D01*
X595122Y41910D02*
X595122Y55880D01*
X614680Y75438D01*
X614680Y22352D02*
X615000Y22300D01*
X614680Y75438D02*
X615000Y77300D01*
X617474Y134112D02*
X637032Y153670D01*
X637032Y167640D01*
X617474Y187198D01*
X617474Y134112D02*
X615000Y132300D01*
X617474Y187198D02*
X615000Y187300D01*
X480568Y324104D02*
X472186Y324104D01*
X461010Y335280D01*
X435864Y335280D01*
X427482Y326898D01*
X480568Y324104D02*
X482460Y322930D01*
X427482Y326898D02*
X425000Y324200D01*
X569976Y271018D02*
X589534Y251460D01*
X569976Y271018D02*
X558800Y271018D01*
X539242Y251460D01*
X589534Y251460D02*
X592300Y250000D01*
X539242Y251460D02*
X537300Y250000D01*
X575564Y329692D02*
X592328Y329692D01*
X575564Y329692D02*
X569976Y335280D01*
X550418Y335280D01*
X539242Y324104D01*
X592328Y329692D02*
X594920Y327930D01*
X539242Y324104D02*
X537460Y322930D01*
X494538Y324104D02*
X483362Y324104D01*
X494538Y324104D02*
X505714Y335280D01*
X525272Y335280D01*
X536448Y324104D01*
X483362Y324104D02*
X482460Y322930D01*
X536448Y324104D02*
X537460Y322930D01*
X377190Y324104D02*
X368808Y324104D01*
X377190Y324104D02*
X388366Y335280D01*
X416306Y335280D01*
X424688Y326898D01*
X368808Y324104D02*
X366190Y322930D01*
X424688Y326898D02*
X425000Y324200D01*
X150876Y427482D02*
X150876Y435864D01*
X142494Y444246D01*
X150876Y427482D02*
X152460Y425800D01*
X142494Y444246D02*
X140000Y445950D01*
X125730Y463804D02*
X125730Y427482D01*
X125730Y463804D02*
X127300Y465000D01*
X125730Y427482D02*
X125000Y425800D01*
X150876Y324104D02*
X108966Y282194D01*
X150876Y324104D02*
X152460Y324200D01*
X111110Y281350D02*
X108966Y282194D01*
X217932Y427482D02*
X201168Y444246D01*
X217932Y427482D02*
X220000Y425800D01*
X201168Y444246D02*
X200000Y445950D01*
X187198Y463804D02*
X187198Y427482D01*
X187198Y463804D02*
X187300Y465000D01*
X187198Y427482D02*
X185000Y425800D01*
X209550Y324104D02*
X217932Y324104D01*
X209550Y324104D02*
X167640Y282194D01*
X217932Y324104D02*
X220000Y324200D01*
X167640Y282194D02*
X165550Y280950D01*
X262636Y433070D02*
X262636Y444246D01*
X262636Y433070D02*
X268224Y427482D01*
X268224Y338074D01*
X279400Y326898D01*
X262636Y444246D02*
X260000Y445950D01*
X279400Y326898D02*
X281270Y324200D01*
X248666Y430276D02*
X248666Y463804D01*
X248666Y430276D02*
X251460Y427482D01*
X248666Y463804D02*
X247300Y465000D01*
X251460Y427482D02*
X251890Y426120D01*
X234696Y407924D02*
X234696Y251460D01*
X234696Y407924D02*
X251460Y424688D01*
X234696Y251460D02*
X232700Y250000D01*
X251460Y424688D02*
X251890Y426120D01*
X321310Y444246D02*
X338074Y427482D01*
X338650Y425800D01*
X321310Y444246D02*
X320000Y445950D01*
X307340Y463804D02*
X307340Y427482D01*
X307340Y463804D02*
X307300Y465000D01*
X307340Y427482D02*
X310000Y425800D01*
X329692Y324104D02*
X338074Y324104D01*
X329692Y324104D02*
X287782Y282194D01*
X276606Y282194D01*
X338074Y324104D02*
X338650Y324200D01*
X276606Y282194D02*
X275000Y281110D01*
X393954Y427482D02*
X393954Y433070D01*
X382778Y444246D01*
X393954Y427482D02*
X395000Y425800D01*
X382778Y444246D02*
X380000Y445950D01*
X368808Y463804D02*
X368808Y424688D01*
X368808Y463804D02*
X367300Y465000D01*
X368808Y424688D02*
X366190Y424530D01*
X385572Y324104D02*
X393954Y324104D01*
X385572Y324104D02*
X343662Y282194D01*
X332486Y282194D01*
X393954Y324104D02*
X395000Y324200D01*
X332486Y282194D02*
X330000Y281190D01*
X441452Y438658D02*
X441452Y444246D01*
X441452Y438658D02*
X452628Y427482D01*
X441452Y444246D02*
X440000Y445950D01*
X452628Y427482D02*
X455000Y425800D01*
X427482Y427482D02*
X427482Y463804D01*
X427300Y465000D01*
X427482Y427482D02*
X425000Y425800D01*
X444246Y324104D02*
X452628Y324104D01*
X444246Y324104D02*
X402336Y282194D01*
X385572Y282194D01*
X452628Y324104D02*
X455000Y324200D01*
X385572Y282194D02*
X385000Y281270D01*
X508508Y427482D02*
X508508Y435864D01*
X500126Y444246D01*
X508508Y427482D02*
X510000Y425800D01*
X500126Y444246D02*
X500000Y445950D01*
X486156Y463804D02*
X486156Y427482D01*
X483362Y424688D01*
X486156Y463804D02*
X487300Y465000D01*
X483362Y424688D02*
X482460Y424530D01*
X502920Y324104D02*
X508508Y324104D01*
X502920Y324104D02*
X461010Y282194D01*
X441452Y282194D01*
X508508Y324104D02*
X510000Y324200D01*
X441452Y282194D02*
X440080Y280950D01*
X561594Y427482D02*
X561594Y444246D01*
X560000Y445950D01*
X561594Y427482D02*
X563900Y426150D01*
X544830Y430276D02*
X544830Y463804D01*
X544830Y430276D02*
X539242Y424688D01*
X544830Y463804D02*
X547300Y465000D01*
X539242Y424688D02*
X537460Y424530D01*
X561594Y324104D02*
X519684Y282194D01*
X497332Y282194D01*
X561594Y324104D02*
X563900Y324550D01*
X497332Y282194D02*
X494920Y281110D01*
X620268Y430276D02*
X620268Y444246D01*
X620268Y430276D02*
X623062Y427482D01*
X620268Y444246D02*
X620000Y445950D01*
X623062Y427482D02*
X625000Y425800D01*
X606298Y441452D02*
X606298Y463804D01*
X606298Y441452D02*
X595122Y430276D01*
X606298Y463804D02*
X607300Y465000D01*
X595122Y430276D02*
X594920Y429530D01*
X609092Y324104D02*
X623062Y324104D01*
X609092Y324104D02*
X567182Y282194D01*
X550418Y282194D01*
X623062Y324104D02*
X625000Y324200D01*
X550418Y282194D02*
X549680Y281190D01*
X153670Y153670D02*
X153670Y148082D01*
X153670Y153670D02*
X142494Y164846D01*
X153670Y148082D02*
X155000Y145800D01*
X142494Y164846D02*
X140000Y165950D01*
X125730Y148082D02*
X125730Y184404D01*
X127300Y185000D01*
X125730Y148082D02*
X125000Y145800D01*
X581152Y212344D02*
X617474Y248666D01*
X581152Y212344D02*
X153670Y212344D01*
X128524Y187198D01*
X617474Y248666D02*
X617700Y250000D01*
X128524Y187198D02*
X127300Y185000D01*
X212344Y153670D02*
X212344Y148082D01*
X212344Y153670D02*
X201168Y164846D01*
X212344Y148082D02*
X213730Y145800D01*
X201168Y164846D02*
X200000Y165950D01*
X187198Y148082D02*
X187198Y184404D01*
X187300Y185000D01*
X187198Y148082D02*
X185000Y145800D01*
X215138Y41910D02*
X229108Y41910D01*
X248666Y22352D01*
X572770Y22352D01*
X583946Y33528D01*
X215138Y41910D02*
X213730Y44200D01*
X583946Y33528D02*
X585000Y35000D01*
X262636Y159258D02*
X262636Y164846D01*
X262636Y159258D02*
X273812Y148082D01*
X262636Y164846D02*
X260000Y165950D01*
X273812Y148082D02*
X275000Y145800D01*
X245872Y148082D02*
X245872Y184404D01*
X247300Y185000D01*
X245872Y148082D02*
X245000Y145800D01*
X539242Y103378D02*
X614680Y103378D01*
X539242Y103378D02*
X530860Y111760D01*
X519684Y111760D01*
X508508Y100584D01*
X290576Y100584D01*
X245872Y145288D01*
X614680Y103378D02*
X615000Y102700D01*
X245872Y145288D02*
X245000Y145800D01*
X276606Y41910D02*
X287782Y41910D01*
X301752Y27940D01*
X522478Y27940D01*
X583946Y89408D01*
X276606Y41910D02*
X275000Y44200D01*
X583946Y89408D02*
X585000Y90000D01*
X332486Y148082D02*
X332486Y153670D01*
X321310Y164846D01*
X332486Y148082D02*
X335000Y145800D01*
X321310Y164846D02*
X320000Y165950D01*
X307340Y148082D02*
X307340Y184404D01*
X307300Y185000D01*
X307340Y148082D02*
X305000Y145800D01*
X494538Y159258D02*
X614680Y159258D01*
X494538Y159258D02*
X455422Y198374D01*
X318516Y198374D01*
X307340Y187198D01*
X614680Y159258D02*
X615000Y157700D01*
X307300Y185000D02*
X307340Y187198D01*
X393954Y153670D02*
X393954Y148082D01*
X393954Y153670D02*
X382778Y164846D01*
X393954Y148082D02*
X395000Y145800D01*
X382778Y164846D02*
X380000Y165950D01*
X366014Y148082D02*
X366014Y184404D01*
X367300Y185000D01*
X366014Y148082D02*
X365000Y145800D01*
X441452Y164846D02*
X458216Y148082D01*
X460000Y145800D01*
X441452Y164846D02*
X440000Y165950D01*
X427482Y148082D02*
X427482Y184404D01*
X427300Y185000D01*
X427482Y148082D02*
X430000Y145800D01*
X461010Y114554D02*
X494538Y114554D01*
X461010Y114554D02*
X430276Y145288D01*
X494538Y114554D02*
X495000Y112700D01*
X430276Y145288D02*
X430000Y145800D01*
X461010Y44704D02*
X477774Y44704D01*
X522478Y89408D01*
X522478Y97790D01*
X461010Y44704D02*
X460000Y44200D01*
X522478Y97790D02*
X525000Y100000D01*
X33528Y173228D02*
X33528Y234696D01*
X27940Y240284D01*
X27940Y338074D01*
X108966Y419100D01*
X108966Y502920D01*
X33528Y173228D02*
X35080Y172700D01*
X108966Y502920D02*
X108030Y505300D01*
X106172Y530860D02*
X83820Y530860D01*
X82630Y530700D01*
X106172Y530860D02*
X108030Y530700D01*
M02*
