M48
;GenerationSoftware,Autodesk,EAGLE,9.6.0*%
;CreationDate,2020-04-08T20:31:54Z*%
FMAT,2
ICI,OFF
METRIC,TZ,000.000
T3C0.813
T2C1.016
T1C1.118
%
G90
M71
T1
X7000Y42580
X7000Y32420
X18500Y42580
X18500Y32420
X12500Y14580
X59492Y32793
X43000Y4420
X36619Y42453
X36619Y32293
X59492Y42953
X43000Y14580
X36500Y4420
X25189Y42612
X25189Y32452
X36500Y14580
X30500Y4420
X30500Y14580
X53746Y32293
X42500Y32420
X53746Y42453
X24500Y4420
X24500Y14580
X12500Y42580
X12500Y32420
X31000Y42580
X31000Y32420
X18500Y4420
X18500Y14580
X12500Y4420
X48246Y32293
X48246Y42453
X42500Y42580
T2
X6703Y25160
X4163Y25160
X5329Y28144
X8263Y50530
X10803Y50530
X13343Y50530
X15883Y50530
X18423Y50530
X20963Y50530
X8263Y53070
X10803Y53070
X13343Y53070
X15883Y53070
X18423Y53070
X20963Y53070
X23503Y50530
X23503Y53070
X26043Y50530
X28583Y50530
X31123Y50530
X33663Y50530
X36203Y50530
X38743Y50530
X26043Y53070
X28583Y53070
X31123Y53070
X33663Y53070
X36203Y53070
X38743Y53070
X41283Y50530
X41283Y53070
X43823Y50530
X46363Y50530
X48903Y50530
X51443Y50530
X53983Y50530
X56523Y50530
X43823Y53070
X46363Y53070
X48903Y53070
X51443Y53070
X53983Y53070
X56523Y53070
X61500Y13230
X61500Y15770
X58500Y14500
X61500Y18730
X61500Y21270
X58500Y20000
X49500Y8730
X49500Y11270
X52500Y10000
X3508Y14730
X9800Y25123
X12340Y25123
X11111Y28135
X3508Y17270
X3508Y8730
X3508Y11270
X3500Y39730
X15230Y25000
X17770Y25000
X16555Y28095
X20730Y25000
X22000Y28127
X26230Y25000
X28770Y25000
X27500Y28111
X31730Y25000
X34270Y25000
X33000Y28119
X23270Y25000
X37230Y25000
X39770Y25000
X38500Y28127
X42730Y25000
X45270Y25000
X44008Y28095
X48230Y25000
X50770Y25000
X49492Y28111
X53730Y25000
X56270Y25000
X54968Y28119
X59230Y25000
X61770Y25000
X60500Y28127
X3500Y42270
X61500Y2230
X61500Y4770
X58500Y3500
X61500Y7730
X61500Y10270
X58500Y9000
T3
X9823Y32430
X9823Y42590
X6510Y46687
X7780Y44782
X9050Y46687
X15246Y32420
X15246Y42580
X12730Y46500
X14000Y44595
X15270Y46500
X22000Y32420
X22000Y42580
X18730Y46500
X20000Y44595
X15500Y4420
X15500Y14580
X39500Y32420
X33270Y46500
X12730Y18500
X14000Y16595
X15270Y18500
X51270Y46500
X42730Y46500
X44000Y44595
X21373Y4420
X21373Y14580
X32000Y44595
X30730Y46500
X18730Y18500
X45270Y46500
X21270Y18500
X56390Y32455
X56390Y42615
X39270Y46500
X27500Y4420
X27500Y14580
X33865Y42580
X33865Y32420
X24730Y18500
X26000Y16595
X27270Y18500
X38000Y44595
X54730Y46500
X56000Y44595
X33500Y4420
X33500Y14580
X27270Y46500
X26000Y44595
X30730Y18500
X32000Y16595
X33270Y18500
X57270Y46500
X51000Y32420
X51000Y42580
X20000Y16595
X39500Y14580
X24730Y46500
X28127Y32420
X36730Y18500
X38000Y16595
X39270Y18500
X45500Y42580
X62500Y32420
X62500Y42580
X46000Y4420
X46000Y14580
X28127Y42580
X21270Y46500
X42730Y18500
X44000Y16595
X45270Y18500
X36730Y46500
X39500Y42580
X60730Y46500
X62000Y44595
X63270Y46500
X45500Y32420
X48730Y46500
X50000Y44595
X39500Y4420
M30